<?xml version="1.0" standalone="no"?>
<!DOCTYPE svg PUBLIC "-//W3C//DTD SVG 20010904//EN"
 "http://www.w3.org/TR/2001/REC-SVG-20010904/DTD/svg10.dtd">
<svg version="1.0" xmlns="http://www.w3.org/2000/svg"
 width="240.000000pt" height="240.000000pt" viewBox="0 0 240.000000 240.000000"
 preserveAspectRatio="xMidYMid meet">
<metadata>
Created by potrace 1.15, written by Peter Selinger 2001-2017
</metadata>
<g transform="translate(0.000000,240.000000) scale(0.100000,-0.100000)"
fill="#000000" stroke="none">
<path d="M1133 1975 c-66 -28 -97 -116 -65 -187 52 -118 212 -119 264 -2 55
126 -70 245 -199 189z m130 -45 c79 -63 37 -190 -64 -190 -45 0 -84 29 -99 75
-30 92 87 175 163 115z"/>
<path d="M992 1679 c-46 -14 -87 -30 -92 -35 -12 -12 -160 -365 -160 -382 0
-20 60 -104 72 -100 5 2 39 60 76 130 36 70 69 125 72 123 4 -2 15 -58 25
-124 l18 -119 -81 -289 c-45 -159 -82 -299 -82 -311 0 -21 4 -22 81 -22 l80 0
61 127 c33 69 78 165 99 212 l40 85 78 -169 c43 -94 88 -189 100 -213 l21 -42
80 0 c76 0 80 1 80 22 0 12 -37 152 -82 311 l-81 289 18 120 c10 65 21 121 25
123 3 2 36 -55 74 -126 37 -71 71 -129 76 -129 12 0 70 85 70 102 0 18 -146
368 -159 381 -5 5 -48 22 -94 37 -75 24 -87 25 -110 13 -47 -24 -108 -26 -168
-6 l-55 19 -82 -27z m141 -36 c64 -17 70 -17 135 0 66 17 68 17 136 -6 l70
-23 75 -178 c67 -159 73 -179 59 -192 -14 -14 -23 -1 -88 123 -40 76 -76 142
-81 148 -19 20 -31 -17 -57 -176 l-28 -164 58 -205 c32 -113 69 -244 82 -292
l24 -88 -47 0 -48 0 -104 225 c-68 148 -109 225 -119 225 -10 0 -51 -77 -119
-225 l-103 -225 -48 0 -48 0 20 73 c11 39 48 171 82 291 l62 219 -27 163 c-28
165 -33 184 -49 184 -5 0 -43 -66 -86 -146 -68 -130 -78 -144 -92 -131 -13 14
-7 35 60 194 l74 178 65 22 c35 12 66 22 69 22 3 1 35 -7 73 -16z"/>
</g>
</svg>
